<?xml version="1.0" encoding="UTF-8" standalone="no"?>
<svg
   xmlns:dc="http://purl.org/dc/elements/1.1/"
   xmlns:cc="http://creativecommons.org/ns#"
   xmlns:rdf="http://www.w3.org/1999/02/22-rdf-syntax-ns#"
   xmlns:svg="http://www.w3.org/2000/svg"
   xmlns="http://www.w3.org/2000/svg"
   viewBox="0 0 53.333332 53.333332"
   height="53.333332"
   width="53.333332"
   xml:space="preserve"
   id="svg2"
   version="1.1"><metadata
     id="metadata8"><rdf:RDF><cc:Work
         rdf:about=""><dc:format>image/svg+xml</dc:format><dc:type
           rdf:resource="http://purl.org/dc/dcmitype/StillImage" /></cc:Work></rdf:RDF></metadata><defs
     id="defs6"><clipPath
       id="clipPath18"
       clipPathUnits="userSpaceOnUse"><path
         id="path16"
         d="M 0,40 H 40 V 0 H 0 Z" /></clipPath></defs><g
     transform="matrix(1.3333333,0,0,-1.3333333,0,53.333333)"
     id="g10"><g
       id="g12"><g
         clip-path="url(#clipPath18)"
         id="g14"><g
           transform="translate(37.7852,20.0054)"
           id="g20"><path
             id="path22"
             style="fill:none;stroke:#892231;stroke-width:0.75;stroke-linecap:butt;stroke-linejoin:miter;stroke-miterlimit:10;stroke-dasharray:none;stroke-opacity:1"
             d="m 0,0 c 0,-9.826 -7.965,-17.791 -17.79,-17.791 -9.825,0 -17.79,7.965 -17.79,17.791 0,9.825 7.965,17.79 17.79,17.79 C -7.965,17.79 0,9.825 0,0 Z" /></g><g
           transform="translate(16.9722,24.9536)"
           id="g24"><path
             id="path26"
             style="fill:#231f20;fill-opacity:1;fill-rule:nonzero;stroke:none"
             d="m 0,0 c 0.201,0.645 0.43,1.267 0.505,1.908 0.1,0.625 0.043,1.276 -0.234,1.68 -0.29,0.376 -0.794,0.444 -1.285,0.241 C -1.496,3.622 -1.926,3.222 -2.178,2.71 -2.726,1.7 -2.709,0.396 -2.406,-0.828 c 0.301,-1.237 0.835,-2.453 1.444,-3.652 -0.925,0.974 -1.727,2.107 -2.191,3.428 -0.485,1.29 -0.618,2.865 0.096,4.24 0.362,0.668 0.953,1.247 1.716,1.527 0.384,0.127 0.818,0.17 1.243,0.063 C 0.329,4.679 0.719,4.377 0.929,4.002 1.326,3.229 1.191,2.446 0.979,1.793 0.729,1.138 0.4,0.542 0,0" /></g><g
           transform="translate(14.7852,22.3364)"
           id="g28"><path
             id="path30"
             style="fill:none;stroke:#231f20;stroke-width:1;stroke-linecap:butt;stroke-linejoin:miter;stroke-miterlimit:10;stroke-dasharray:none;stroke-opacity:1"
             d="M 0,0 C 5.561,-8.339 -1.09,-8.946 -2.742,-8.803" /></g><g
           transform="translate(15.021,21.9756)"
           id="g32"><path
             id="path34"
             style="fill:none;stroke:#231f20;stroke-width:1;stroke-linecap:butt;stroke-linejoin:miter;stroke-miterlimit:10;stroke-dasharray:none;stroke-opacity:1"
             d="M 0,0 C -6.591,-2.164 -8.914,-9.456 -1.117,-8.318" /></g><g
           transform="translate(15.021,21.9756)"
           id="g36"><path
             id="path38"
             style="fill:none;stroke:#231f20;stroke-width:1;stroke-linecap:butt;stroke-linejoin:miter;stroke-miterlimit:10;stroke-dasharray:none;stroke-opacity:1"
             d="M 0,0 C 10.71,2.897 13.521,12.519 8.685,14.011" /></g><g
           transform="translate(25.7207,34.1777)"
           id="g40"><path
             id="path42"
             style="fill:none;stroke:#231f20;stroke-width:1;stroke-linecap:butt;stroke-linejoin:miter;stroke-miterlimit:10;stroke-dasharray:none;stroke-opacity:1"
             d="M 0,0 C -3.495,6.788 -8.19,-7.206 -4.827,-14.53" /></g><g
           transform="translate(20.7349,19.646)"
           id="g44"><path
             id="path46"
             style="fill:none;stroke:#231f20;stroke-width:1;stroke-linecap:butt;stroke-linejoin:miter;stroke-miterlimit:10;stroke-dasharray:none;stroke-opacity:1"
             d="M 0,0 C 4.452,-11.77 -1.98,-15.679 -4.647,-15.71" /></g><g
           transform="translate(14.0513,13.8105)"
           id="g48"><path
             id="path50"
             style="fill:none;stroke:#231f20;stroke-width:1;stroke-linecap:butt;stroke-linejoin:miter;stroke-miterlimit:10;stroke-dasharray:none;stroke-opacity:1"
             d="M 0,0 C -2.268,-4.407 -0.917,-14.689 6.35,-7.471" /></g><g
           transform="translate(21.8809,20.2554)"
           id="g52"><path
             id="path54"
             style="fill:none;stroke:#231f20;stroke-width:1;stroke-linecap:butt;stroke-linejoin:miter;stroke-miterlimit:10;stroke-dasharray:none;stroke-opacity:1"
             d="M 0,0 C -1.119,0.125 -3.987,-1.928 -5.1,-2.633" /></g><g
           transform="translate(22.0039,20.6895)"
           id="g56"><path
             id="path58"
             style="fill:#231f20;fill-opacity:1;fill-rule:nonzero;stroke:none"
             d="M 0,0 C 0.021,-0.002 0.028,-0.006 0.03,-0.021 0.024,-0.037 0.109,-0.08 0.144,-0.109 0.227,-0.176 0.333,-0.242 0.46,-0.302 0.687,-0.433 0.956,-0.536 1.212,-0.648 1.74,-0.857 2.286,-1.042 2.839,-1.213 c 1.107,-0.341 2.24,-0.621 3.38,-0.864 2.281,-0.485 4.601,-0.828 6.945,-0.904 -2.344,-0.091 -4.7,0.086 -7.032,0.412 -1.167,0.164 -2.33,0.364 -3.486,0.632 -0.579,0.133 -1.156,0.284 -1.732,0.466 -0.288,0.103 -0.576,0.189 -0.869,0.328 -0.144,0.057 -0.293,0.131 -0.449,0.235 -0.082,0.059 -0.143,0.07 -0.241,0.17 -0.093,0.094 -0.182,0.201 -0.258,0.309 z" /></g><g
           transform="translate(39.2998,20)"
           id="g60"><path
             id="path62"
             style="fill:none;stroke:#231f20;stroke-width:1;stroke-linecap:butt;stroke-linejoin:miter;stroke-miterlimit:10;stroke-dasharray:none;stroke-opacity:1"
             d="m 0,0 c 0,-10.659 -8.641,-19.3 -19.3,-19.3 -10.658,0 -19.299,8.641 -19.299,19.3 0,10.659 8.641,19.299 19.299,19.299 C -8.641,19.299 0,10.659 0,0 Z" /></g></g></g></g></svg>